<?xml version="1.0" standalone="no"?>
<!DOCTYPE svg PUBLIC "-//W3C//DTD SVG 20010904//EN"
 "http://www.w3.org/TR/2001/REC-SVG-20010904/DTD/svg10.dtd">
<svg version="1.0" xmlns="http://www.w3.org/2000/svg"
 width="512.000000pt" height="512.000000pt" viewBox="0 0 512.000000 512.000000"
 preserveAspectRatio="xMidYMid meet">

<g transform="translate(0.000000,512.000000) scale(0.100000,-0.100000)"
fill="#000000" stroke="none">
<path d="M2505 5096 c-56 -26 -88 -70 -92 -128 -5 -66 19 -114 71 -144 30 -17
61 -22 172 -27 935 -45 1721 -627 2018 -1494 39 -114 92 -322 84 -328 -2 -1
-160 90 -353 202 -359 209 -511 297 -815 472 -171 99 -174 100 -117 50 208
-185 369 -473 440 -787 18 -84 21 -128 22 -337 0 -213 -3 -252 -23 -347 -66
-309 -196 -551 -409 -761 -195 -192 -457 -328 -750 -388 -99 -21 -146 -23
-546 -28 l-438 -6 596 -340 c441 -251 592 -341 578 -346 -95 -35 -500 -44
-693 -15 -645 96 -1197 445 -1556 982 -179 267 -297 573 -351 909 -24 153 -24
486 0 645 23 147 68 327 113 449 87 235 249 509 414 701 89 102 100 122 100
176 0 97 -97 169 -193 143 -44 -12 -94 -60 -202 -194 -290 -362 -464 -763
-537 -1240 -26 -176 -29 -509 -5 -680 80 -574 328 -1075 729 -1475 445 -443
1002 -696 1637 -741 316 -22 674 25 981 129 782 267 1398 913 1626 1706 168
585 123 1229 -126 1789 -184 413 -510 794 -900 1050 -227 149 -567 291 -840
351 -232 51 -577 79 -635 52z"/>
<path d="M1850 4998 c-142 -73 -93 -283 67 -283 58 0 93 20 131 76 19 27 23
43 19 82 -10 113 -119 176 -217 125z"/>
<path d="M1249 4738 c-52 -30 -83 -88 -76 -145 17 -153 220 -187 287 -48 64
133 -83 268 -211 193z"/>
<path d="M2150 2565 l0 -908 218 6 c178 4 231 9 297 26 415 110 667 478 642
936 -18 306 -153 553 -385 703 -155 100 -284 132 -569 139 l-203 6 0 -908z"/>
</g>
</svg>
